<?xml version="1.0" encoding="UTF-8" standalone="no"?>
<!-- Created with Inkscape (http://www.inkscape.org/) -->

<svg
   xmlns:dc="http://purl.org/dc/elements/1.1/"
   xmlns:cc="http://creativecommons.org/ns#"
   xmlns:rdf="http://www.w3.org/1999/02/22-rdf-syntax-ns#"
   xmlns:svg="http://www.w3.org/2000/svg"
   xmlns="http://www.w3.org/2000/svg"
   version="1.1"
   width="717.1015"
   height="356.90225"
   id="svg3409"
   xml:space="preserve"><metadata
     id="metadata3415"><rdf:RDF><cc:Work
         rdf:about=""><dc:format>image/svg+xml</dc:format><dc:type
           rdf:resource="http://purl.org/dc/dcmitype/StillImage" /><dc:title></dc:title></cc:Work></rdf:RDF></metadata><defs
     id="defs3413"><clipPath
       id="clipPath3427"><path
         d="M 0,0 574,0 574,286 0,286 0,0 z"
         id="path3429" /></clipPath><clipPath
       id="clipPath3431"><path
         d="m 0,286 573.68,0 0,-285.523 L 0,0.477 0,286 z"
         id="path3433" /></clipPath><clipPath
       id="clipPath3435"><path
         d="M 0,0 574,0 574,286 0,286 0,0 z"
         id="path3437" /></clipPath><clipPath
       id="clipPath3439"><path
         d="M 0,0 574,0 574,286 0,286 0,0 z"
         id="path3441" /></clipPath><clipPath
       id="clipPath3443"><path
         d="m 0,290.16 575,0 0,-290 -575,0 0,290 z"
         id="path3445" /></clipPath><clipPath
       id="clipPath3447"><path
         d="M 0,0 574,0 574,286 0,286 0,0 z"
         id="path3449" /></clipPath></defs><g
     transform="matrix(1.25,0,0,-1.25,0,356.90224)"
     id="g3417"><g
       id="g3419" /><g
       id="g3421"><g
         transform="translate(0,-0.47821)"
         id="g3423"><g
           id="g3425" /><g
           id="g3451"><g
             clip-path="url(#clipPath3427)"
             id="g3453"><g
               id="g3455"><g
                 clip-path="url(#clipPath3431)"
                 id="g3457"><g
                   id="g3459"><g
                     id="g3461" /><g
                     id="g3463"><g
                       clip-path="url(#clipPath3435)"
                       id="g3465"><g
                         id="g3467"><g
                           id="g3469"><g
                             id="g3471" /><g
                             id="g3473"><g
                               clip-path="url(#clipPath3439)"
                               id="g3475"><g
                                 id="g3477"><path
                                   d="m 118.375,143.078 455.305,0 0,-142.602 -455.305,0 0,142.602 z"
                                   id="path3479"
                                   style="fill:#595959;fill-opacity:1;fill-rule:nonzero;stroke:none" /></g></g></g></g></g></g></g></g></g></g><g
               id="g3481"><g
                 clip-path="url(#clipPath3443)"
                 id="g3483"><g
                   id="g3485"><g
                     id="g3487" /><g
                     id="g3489"><g
                       clip-path="url(#clipPath3447)"
                       id="g3491"><g
                         id="g3493" /><g
                         id="g3495"><path
                           d="m 0,286 573.68,0 0,-142.922 L 0,143.078 0,286 z"
                           id="path3497"
                           style="fill:#ed8c01;fill-opacity:1;fill-rule:nonzero;stroke:none" /><path
                           d="m 92.812,263.883 -23.902,0 -28.012,-98.813 19.278,0 6.808,26.082 26.473,0 7.066,-26.082 19.915,0 -27.626,98.813 z m -23.132,-58.336 5.918,22.617 c 1.41,5.774 3.082,13.871 4.363,20.039 l 0.387,0 c 1.281,-6.035 2.957,-14 4.5,-20.172 l 5.906,-22.484 -21.074,0 z m 159.976,58.465 -19.011,0 0,-59.75 c 0,-17.598 -6.297,-24.926 -16.575,-24.926 -9.769,0 -16.32,7.574 -16.32,24.926 l 0,59.75 -19.02,0 0,-58.078 c 0,-29.047 12.594,-42.282 34.825,-42.282 22.359,0 36.101,13.493 36.101,42.407 l 0,57.953 z m 44.723,-98.555 c 5.008,-0.645 12.336,-1.289 21.457,-1.289 17.223,0 30.969,3.984 39.965,12.082 7.578,6.805 14.902,19.145 14.902,40.344 0,17.863 -5.523,30.074 -14.902,37.777 -8.231,6.813 -19.403,10.285 -35.852,10.285 -9.637,0 -18.633,-0.773 -25.57,-2.058 l 0,-97.141 z m 18.887,83.52 c 2.058,0.382 5.011,0.773 8.996,0.773 17.601,0 28.527,-11.055 28.527,-33.414 0,-25.949 -12.082,-37.133 -30.203,-37 -2.563,0 -5.391,0 -7.32,0.379 l 0,69.262 z m 97.527,-83.907 19.019,0 0,98.813 -19.019,0 0,-98.813 z m 101.254,100.352 c -25.828,0 -42.149,-21.715 -42.149,-51.266 0,-28.66 14.782,-50.504 40.864,-50.504 24.55,0 42.019,17.61 42.019,52.043 0,26.34 -13.367,49.727 -40.734,49.727 m -0.512,-15.547 c 14.52,0 21.332,-16.828 21.332,-34.949 0,-19.914 -7.324,-35.723 -21.465,-35.723 -14.004,0 -21.578,15.938 -21.578,35.34 0,18.113 6.809,35.332 21.711,35.332"
                           id="path3499"
                           style="fill:#ffffff;fill-opacity:1;fill-rule:nonzero;stroke:none" /><path
                           d="m 217.602,38.211 -35.344,0 0,82.754 -19.012,0 0,-98.817 54.356,0 0,16.063 z m 83.128,82.754 -23.89,0 -28.02,-98.817 19.278,0 6.808,26.086 26.473,0 7.07,-26.086 19.914,0 -27.633,98.817 z m -23.125,-58.332 5.911,22.613 c 1.414,5.781 3.082,13.875 4.371,20.039 l 0.383,0 c 1.281,-6.039 2.96,-14 4.5,-20.172 l 5.914,-22.48 -21.079,0 z m 135.442,12.844 c 10.531,3.98 15.797,12.332 15.797,21.328 0,8.097 -3.723,14.652 -9.637,18.636 -6.812,4.754 -15.293,6.293 -27.238,6.293 -9.637,0 -19.407,-0.898 -25.055,-2.05 l 0,-97.149 c 4.621,-0.644 11.688,-1.281 21.063,-1.281 17.613,0 28.656,3.215 35.339,9.246 5.786,5.148 9,12.598 9,20.309 0,12.582 -8.226,21.328 -19.269,24.156 l 0,0.512 z m -27.242,5.265 0,26.215 c 1.668,0.387 4.23,0.645 8.343,0.645 8.477,0 15.805,-3.211 15.805,-12.981 0,-8.094 -6.418,-13.879 -17.219,-13.879 l -6.929,0 z m 0,-13.871 7.058,0 c 9.762,0 19.532,-4.117 19.532,-15.555 0,-11.179 -8.735,-15.804 -19.02,-15.804 -3.34,0 -5.645,0.136 -7.57,0.515 l 0,30.844 z m 139.285,51.012 c -4.629,2.312 -11.82,4.496 -21.199,4.496 -21.332,0 -34.059,-12.465 -34.059,-28.656 0,-12.852 9.254,-22.098 24.168,-28.528 10.914,-4.75 15.668,-8.996 15.668,-16.062 0,-7.317 -5.523,-12.336 -16.066,-12.336 -7.957,0 -16.184,2.445 -21.325,5.531 l -3.73,-15.933 c 4.625,-2.829 14.523,-5.528 24.293,-5.528 23,0 35.976,12.59 35.976,29.809 0,12.98 -7.066,22.105 -22.875,29.168 -12.074,5.523 -16.961,8.742 -16.961,15.808 0,5.524 4.497,10.922 14.52,10.922 8.09,0 14.137,-2.441 17.602,-4.242 l 3.988,15.551"
                           id="path3501"
                           style="fill:#ffffff;fill-opacity:1;fill-rule:nonzero;stroke:none" /></g></g></g></g></g></g></g></g></g></g></g></svg>