<?xml version="1.0" encoding="UTF-8" standalone="no"?>
<!-- Created with Inkscape (http://www.inkscape.org/) -->

<svg
   xmlns:dc="http://purl.org/dc/elements/1.1/"
   xmlns:cc="http://creativecommons.org/ns#"
   xmlns:rdf="http://www.w3.org/1999/02/22-rdf-syntax-ns#"
   xmlns:svg="http://www.w3.org/2000/svg"
   xmlns="http://www.w3.org/2000/svg"
   version="1.1"
   width="708.71631"
   height="138.83246"
   id="svg3541"
   xml:space="preserve"><metadata
     id="metadata3547"><rdf:RDF><cc:Work
         rdf:about=""><dc:format>image/svg+xml</dc:format><dc:type
           rdf:resource="http://purl.org/dc/dcmitype/StillImage" /><dc:title></dc:title></cc:Work></rdf:RDF></metadata><defs
     id="defs3545"><clipPath
       id="clipPath3639"><path
         d="m 282.918,65.707 284.055,0 0,-65.707 -284.055,0 0,65.707 z"
         id="path3641" /></clipPath><clipPath
       id="clipPath3647"><path
         d="M 0,0 567,0 567,112 0,112 0,0 z"
         id="path3649" /></clipPath><clipPath
       id="clipPath3651"><path
         d="M 0,0 567,0 567,112 0,112 0,0 z"
         id="path3653" /></clipPath></defs><g
     transform="matrix(1.25,0,0,-1.25,0,138.83246)"
     id="g3549"><g
       id="g3551"><path
         d="m 247.719,8.199 -66.989,0 c 4.118,-3.446 8.879,-6.035 13.922,-7.832 l 39.106,0 c 5.062,1.797 9.836,4.386 13.961,7.832"
         id="path3553"
         style="fill:#000000;fill-opacity:1;fill-rule:nonzero;stroke:none" /><path
         d="m 61.301,11.796 29.035,0 0.047,0.145 -0.082,0 2.406,7.687 -28.516,0 -2.89,-7.832"
         id="path3555"
         style="fill:#000000;fill-opacity:1;fill-rule:nonzero;stroke:none" /><path
         d="m 59.969,8.199 -2.891,-7.832 29.582,0 2.52,7.832 -29.211,0"
         id="path3557"
         style="fill:#000000;fill-opacity:1;fill-rule:nonzero;stroke:none" /><path
         d="m 0,8.199 27.723,0 0,-7.832 -27.723,0 0,7.832 z"
         id="path3559"
         style="fill:#000000;fill-opacity:1;fill-rule:nonzero;stroke:none" /><path
         d="m 0,19.632 27.723,0 0,-7.836 -27.723,0 0,7.836 z"
         id="path3561"
         style="fill:#000000;fill-opacity:1;fill-rule:nonzero;stroke:none" /><path
         d="m 0,31.062 27.723,0 0,-7.832 -27.723,0 0,7.832 z"
         id="path3563"
         style="fill:#000000;fill-opacity:1;fill-rule:nonzero;stroke:none" /><path
         d="m 0,42.488 27.723,0 0,-7.828 -27.723,0 0,7.828 z"
         id="path3565"
         style="fill:#000000;fill-opacity:1;fill-rule:nonzero;stroke:none" /><path
         d="m 0,76.777 27.723,0 0,-7.832 -27.723,0 0,7.832 z"
         id="path3567"
         style="fill:#000000;fill-opacity:1;fill-rule:nonzero;stroke:none" /><path
         d="m 0,88.207 27.723,0 0,-7.832 -27.723,0 0,7.832 z"
         id="path3569"
         style="fill:#000000;fill-opacity:1;fill-rule:nonzero;stroke:none" /><path
         d="m 0,111.066 84.727,0 0,-7.832 -84.727,0 0,7.832 z"
         id="path3571"
         style="fill:#000000;fill-opacity:1;fill-rule:nonzero;stroke:none" /><path
         d="m 0,99.636 84.727,0 0,-7.832 -84.727,0 0,7.832 z"
         id="path3573"
         style="fill:#000000;fill-opacity:1;fill-rule:nonzero;stroke:none" /><path
         d="m 110.301,76.777 -25,0 -2.895,-7.832 25.547,0 2.348,7.832"
         id="path3575"
         style="fill:#000000;fill-opacity:1;fill-rule:nonzero;stroke:none" /><path
         d="m 95.074,103.234 34.512,0 -2.961,7.832 -28.656,0 -2.895,-7.832"
         id="path3577"
         style="fill:#000000;fill-opacity:1;fill-rule:nonzero;stroke:none" /><path
         d="m 90.852,91.804 43.05,0 -2.961,7.836 -37.199,0 -2.89,-7.836"
         id="path3579"
         style="fill:#000000;fill-opacity:1;fill-rule:nonzero;stroke:none" /><path
         d="m 113.836,80.375 24.387,0 -2.961,7.836 -45.739,0 -2.894,-7.836 24.75,0 1.074,3.589 0.309,0 1.074,-3.589"
         id="path3581"
         style="fill:#000000;fill-opacity:1;fill-rule:nonzero;stroke:none" /><path
         d="m 117.258,68.945 25.281,0 -2.961,7.832 -24.664,0 2.344,-7.832"
         id="path3583"
         style="fill:#000000;fill-opacity:1;fill-rule:nonzero;stroke:none" /><path
         d="m 120.68,57.519 26.175,0 -2.957,7.828 -25.562,0 2.344,-7.828"
         id="path3585"
         style="fill:#000000;fill-opacity:1;fill-rule:nonzero;stroke:none" /><path
         d="m 124.102,46.089 27.074,0 -2.961,7.829 -26.461,0 2.348,-7.829"
         id="path3587"
         style="fill:#000000;fill-opacity:1;fill-rule:nonzero;stroke:none" /><path
         d="m 69.742,34.656 85.75,0 -2.961,7.832 -79.894,0 -2.895,-7.832"
         id="path3589"
         style="fill:#000000;fill-opacity:1;fill-rule:nonzero;stroke:none" /><path
         d="m 65.523,23.23 94.289,0 -2.96,7.832 -88.438,0 -2.891,-7.832"
         id="path3591"
         style="fill:#000000;fill-opacity:1;fill-rule:nonzero;stroke:none" /><path
         d="m 135.117,11.796 29.016,0 -2.961,7.832 -28.61,0 2.555,-7.832"
         id="path3593"
         style="fill:#000000;fill-opacity:1;fill-rule:nonzero;stroke:none" /><path
         d="m 168.445,0.367 -2.957,7.832 -29.297,0 2.52,-7.832 29.734,0"
         id="path3595"
         style="fill:#000000;fill-opacity:1;fill-rule:nonzero;stroke:none" /><path
         d="m 167.273,111.066 27.723,0 0,-7.832 -27.723,0 0,7.832 z"
         id="path3597"
         style="fill:#000000;fill-opacity:1;fill-rule:nonzero;stroke:none" /><path
         d="m 167.273,99.636 27.723,0 0,-7.832 -27.723,0 0,7.832 z"
         id="path3599"
         style="fill:#000000;fill-opacity:1;fill-rule:nonzero;stroke:none" /><path
         d="m 167.273,88.207 27.723,0 0,-7.832 -27.723,0 0,7.832 z"
         id="path3601"
         style="fill:#000000;fill-opacity:1;fill-rule:nonzero;stroke:none" /><path
         d="m 167.273,76.777 27.723,0 0,-7.832 -27.723,0 0,7.832 z"
         id="path3603"
         style="fill:#000000;fill-opacity:1;fill-rule:nonzero;stroke:none" /><path
         d="m 167.273,65.351 27.723,0 0,-7.832 -27.723,0 0,7.832 z"
         id="path3605"
         style="fill:#000000;fill-opacity:1;fill-rule:nonzero;stroke:none" /><path
         d="m 167.273,53.918 27.723,0 0,-7.828 -27.723,0 0,7.828 z"
         id="path3607"
         style="fill:#000000;fill-opacity:1;fill-rule:nonzero;stroke:none" /><path
         d="m 167.496,34.656 28.02,0 c -0.352,2.027 -0.52,4.195 -0.52,6.476 l 0,1.356 -27.723,0 0,-3.692 c 0,-1.437 0.11,-2.789 0.223,-4.14"
         id="path3609"
         style="fill:#000000;fill-opacity:1;fill-rule:nonzero;stroke:none" /><path
         d="m 169.977,23.23 31.617,0 c -2.461,1.973 -4.133,4.648 -5.184,7.832 l -28.461,0 c 0.457,-2.793 1.113,-5.422 2.028,-7.832"
         id="path3611"
         style="fill:#000000;fill-opacity:1;fill-rule:nonzero;stroke:none" /><path
         d="m 256.918,19.628 -85.371,0 c 1.488,-2.925 3.324,-5.519 5.41,-7.832 l 74.547,0 c 2.086,2.313 3.93,4.907 5.414,7.832"
         id="path3613"
         style="fill:#000000;fill-opacity:1;fill-rule:nonzero;stroke:none" /><path
         d="m 260.52,31.062 -28.469,0 c -1.047,-3.184 -2.735,-5.859 -5.211,-7.832 l 31.648,0 c 0.914,2.41 1.571,5.039 2.032,7.832"
         id="path3615"
         style="fill:#000000;fill-opacity:1;fill-rule:nonzero;stroke:none" /><path
         d="m 233.469,111.066 27.723,0 0,-7.832 -27.723,0 0,7.832 z"
         id="path3617"
         style="fill:#000000;fill-opacity:1;fill-rule:nonzero;stroke:none" /><path
         d="m 233.469,99.636 27.723,0 0,-7.832 -27.723,0 0,7.832 z"
         id="path3619"
         style="fill:#000000;fill-opacity:1;fill-rule:nonzero;stroke:none" /><path
         d="m 233.469,88.207 27.723,0 0,-7.832 -27.723,0 0,7.832 z"
         id="path3621"
         style="fill:#000000;fill-opacity:1;fill-rule:nonzero;stroke:none" /><path
         d="m 233.469,76.777 27.723,0 0,-7.832 -27.723,0 0,7.832 z"
         id="path3623"
         style="fill:#000000;fill-opacity:1;fill-rule:nonzero;stroke:none" /><path
         d="m 233.469,65.351 27.723,0 0,-7.832 -27.723,0 0,7.832 z"
         id="path3625"
         style="fill:#000000;fill-opacity:1;fill-rule:nonzero;stroke:none" /><path
         d="m 233.469,53.918 27.723,0 0,-7.828 -27.723,0 0,7.828 z"
         id="path3627"
         style="fill:#000000;fill-opacity:1;fill-rule:nonzero;stroke:none" /><path
         d="m 261.191,38.796 0,3.692 -27.722,0 0,-1.36 c 0,-2.277 -0.168,-4.445 -0.52,-6.472 l 28.02,0 c 0.113,1.351 0.222,2.703 0.222,4.14"
         id="path3629"
         style="fill:#000000;fill-opacity:1;fill-rule:nonzero;stroke:none" /><path
         d="m 0,53.882 0,-7.828 101.113,0 2.348,7.828 -103.461,0"
         id="path3631"
         style="fill:#000000;fill-opacity:1;fill-rule:nonzero;stroke:none" /><path
         d="m 0,65.378 0,-7.828 104.535,0 2.344,7.828 -106.879,0"
         id="path3633"
         style="fill:#000000;fill-opacity:1;fill-rule:nonzero;stroke:none" /></g><g
       id="g3635"><g
         clip-path="url(#clipPath3639)"
         id="g3637"><g
           transform="translate(0,-0.934029)"
           id="g3643"><g
             id="g3645" /><g
             id="g3655"><g
               clip-path="url(#clipPath3647)"
               id="g3657"><g
                 id="g3659"><g
                   id="g3661"><g
                     id="g3663" /><g
                     id="g3665"><g
                       clip-path="url(#clipPath3651)"
                       id="g3667"><g
                         id="g3669" /><g
                         id="g3671"><path
                           d="m 294.938,17.355 0,-2.964 -8.485,0 0,-3.446 7.785,0 0,-2.746 -7.785,0 0,-3.937 8.66,0 0,-2.969 -12.195,0 0,16.062 12.02,0 z m 10.859,-7.265 c 0.808,0 1.418,0.18 1.82,0.539 0.406,0.359 0.613,0.945 0.613,1.758 0,0.777 -0.207,1.343 -0.613,1.699 -0.402,0.352 -1.012,0.527 -1.82,0.527 l -3.867,0 0,-4.523 3.867,0 z m 1.262,7.265 c 0.718,0 1.367,-0.113 1.945,-0.343 0.574,-0.235 1.07,-0.551 1.484,-0.961 0.414,-0.403 0.731,-0.871 0.946,-1.403 0.214,-0.535 0.328,-1.109 0.328,-1.722 0,-0.946 -0.2,-1.762 -0.598,-2.453 -0.394,-0.692 -1.047,-1.215 -1.945,-1.575 l 0,-0.043 c 0.433,-0.125 0.793,-0.308 1.078,-0.554 0.285,-0.246 0.515,-0.539 0.695,-0.879 0.184,-0.336 0.317,-0.707 0.399,-1.11 0.082,-0.406 0.136,-0.812 0.168,-1.218 0.011,-0.254 0.031,-0.555 0.046,-0.899 0.012,-0.343 0.04,-0.699 0.079,-1.058 0.035,-0.36 0.093,-0.699 0.175,-1.024 0.082,-0.32 0.207,-0.593 0.371,-0.82 l -3.531,0 c -0.195,0.508 -0.312,1.117 -0.359,1.82 -0.043,0.707 -0.11,1.379 -0.203,2.028 -0.117,0.839 -0.375,1.453 -0.766,1.843 -0.391,0.391 -1.027,0.586 -1.91,0.586 l -3.531,0 0,-6.277 -3.535,0 0,16.062 8.664,0 z m 11.425,0 0,-13.093 7.828,0 0,-2.969 -11.359,0 0,16.062 3.531,0 z m 19.196,-9.851 -2.028,5.894 -0.047,0 -2.089,-5.894 4.164,0 z m -0.203,9.851 6.003,-16.062 -3.668,0 -1.21,3.574 -6.008,0 -1.262,-3.574 -3.555,0 6.075,16.062 3.625,0 z m 11.515,0 6.707,-10.773 0.043,0 0,10.773 3.309,0 0,-16.062 -3.531,0 -6.684,10.754 -0.047,0 0,-10.754 -3.305,0 0,16.062 3.508,0 z M 372.215,1.418 c -0.766,-0.324 -1.539,-0.484 -2.32,-0.484 -1.231,0 -2.333,0.211 -3.317,0.64 -0.98,0.426 -1.812,1.016 -2.484,1.766 -0.68,0.75 -1.196,1.633 -1.555,2.644 C 362.18,6.996 362,8.086 362,9.258 c 0,1.199 0.18,2.312 0.539,3.34 0.359,1.027 0.875,1.925 1.555,2.691 0.672,0.762 1.504,1.363 2.484,1.801 0.984,0.433 2.086,0.648 3.317,0.648 0.828,0 1.625,-0.121 2.398,-0.371 0.773,-0.246 1.473,-0.609 2.094,-1.09 0.621,-0.48 1.133,-1.07 1.539,-1.777 0.406,-0.707 0.652,-1.516 0.746,-2.43 l -3.375,0 c -0.211,0.899 -0.617,1.578 -1.219,2.024 -0.598,0.449 -1.324,0.679 -2.183,0.679 -0.793,0 -1.469,-0.156 -2.024,-0.464 -0.555,-0.309 -1.004,-0.719 -1.351,-1.235 -0.344,-0.519 -0.594,-1.109 -0.75,-1.769 -0.161,-0.66 -0.239,-1.344 -0.239,-2.047 0,-0.676 0.078,-1.332 0.239,-1.969 0.156,-0.637 0.406,-1.211 0.75,-1.723 0.347,-0.507 0.796,-0.918 1.351,-1.226 0.555,-0.309 1.231,-0.461 2.024,-0.461 1.171,0 2.078,0.297 2.714,0.891 0.637,0.589 1.008,1.449 1.114,2.574 l -3.559,0 0,2.636 6.75,0 0,-8.687 -2.25,0 -0.355,1.82 C 373.676,2.305 372.98,1.738 372.215,1.418 m 20.18,15.937 0,-2.964 -8.481,0 0,-3.446 7.785,0 0,-2.746 -7.785,0 0,-3.937 8.66,0 0,-2.969 -12.191,0 0,16.062 12.012,0 z m 7.199,0 6.703,-10.773 0.047,0 0,10.773 3.304,0 0,-16.062 -3.531,0 -6.683,10.754 -0.043,0 0,-10.754 -3.309,0 0,16.062 3.512,0 z m 20.836,-11.293 -6.774,0 0,2.747 6.774,0 0,-2.747 z m 7.57,11.293 6.703,-10.773 0.047,0 0,10.773 3.309,0 0,-16.062 -3.536,0 -6.679,10.754 -0.047,0 0,-10.754 -3.309,0 0,16.062 3.512,0 z m 19.977,1.801 -3.039,0 0,2.633 3.039,0 0,-2.633 z m 4.632,0 -3.039,0 0,2.633 3.039,0 0,-2.633 z M 453.805,2.52 c -1.215,-1.059 -2.899,-1.586 -5.039,-1.586 -2.176,0 -3.864,0.523 -5.051,1.574 -1.195,1.051 -1.789,2.668 -1.789,4.859 l 0,9.988 3.527,0 0,-9.988 c 0,-0.433 0.039,-0.863 0.113,-1.281 0.079,-0.422 0.235,-0.793 0.473,-1.113 0.242,-0.325 0.574,-0.586 1.004,-0.789 0.426,-0.204 1,-0.305 1.723,-0.305 1.257,0 2.129,0.281 2.605,0.848 0.484,0.558 0.723,1.441 0.723,2.64 l 0,9.988 3.531,0 0,-9.988 c 0,-2.176 -0.605,-3.793 -1.82,-4.847 m 12.851,7.57 c 0.813,0 1.418,0.18 1.824,0.539 0.407,0.359 0.61,0.945 0.61,1.758 0,0.777 -0.203,1.343 -0.61,1.699 -0.406,0.352 -1.011,0.527 -1.824,0.527 l -3.871,0 0,-4.523 3.871,0 z m 1.262,7.265 c 0.719,0 1.367,-0.113 1.945,-0.343 0.578,-0.235 1.075,-0.551 1.485,-0.961 0.414,-0.403 0.726,-0.871 0.945,-1.403 0.219,-0.535 0.324,-1.109 0.324,-1.722 0,-0.946 -0.195,-1.762 -0.594,-2.453 -0.394,-0.692 -1.046,-1.215 -1.945,-1.575 l 0,-0.043 c 0.434,-0.125 0.793,-0.308 1.078,-0.554 0.285,-0.246 0.52,-0.539 0.699,-0.879 0.18,-0.336 0.309,-0.707 0.391,-1.11 0.082,-0.406 0.141,-0.812 0.172,-1.218 0.016,-0.254 0.027,-0.555 0.047,-0.899 0.012,-0.343 0.039,-0.699 0.074,-1.058 0.039,-0.36 0.102,-0.699 0.184,-1.024 0.082,-0.32 0.207,-0.593 0.371,-0.82 l -3.535,0 c -0.196,0.508 -0.317,1.117 -0.36,1.82 -0.047,0.707 -0.109,1.379 -0.203,2.028 -0.117,0.839 -0.375,1.453 -0.766,1.843 -0.386,0.391 -1.027,0.586 -1.91,0.586 l -3.535,0 0,-6.277 -3.531,0 0,16.062 8.664,0 z m 11.852,0 6.707,-10.773 0.043,0 0,10.773 3.308,0 0,-16.062 -3.531,0 -6.684,10.754 -0.043,0 0,-10.754 -3.308,0 0,16.062 3.508,0 z m 21.222,-6.5 c 0.629,0 1.149,0.149 1.555,0.45 0.402,0.3 0.605,0.789 0.605,1.465 0,0.375 -0.066,0.679 -0.203,0.921 -0.137,0.239 -0.312,0.426 -0.539,0.563 -0.226,0.137 -0.484,0.226 -0.777,0.277 -0.293,0.059 -0.598,0.082 -0.91,0.082 l -3.309,0 0,-3.758 3.578,0 z m 0.449,6.5 c 0.766,0 1.461,-0.066 2.094,-0.199 0.629,-0.133 1.168,-0.359 1.617,-0.664 0.453,-0.308 0.801,-0.715 1.047,-1.226 0.25,-0.512 0.371,-1.141 0.371,-1.891 0,-0.809 -0.179,-1.484 -0.55,-2.023 -0.368,-0.54 -0.911,-0.985 -1.629,-1.329 0.988,-0.285 1.726,-0.785 2.214,-1.496 0.489,-0.715 0.735,-1.574 0.735,-2.578 0,-0.808 -0.16,-1.511 -0.477,-2.101 C 506.551,3.254 506.125,2.77 505.594,2.395 505.062,2.02 504.453,1.742 503.77,1.562 503.09,1.383 502.387,1.293 501.668,1.293 l -7.785,0 0,16.062 7.558,0 z M 501.195,4.039 c 0.344,0 0.672,0.031 0.989,0.098 0.316,0.07 0.593,0.179 0.836,0.34 0.238,0.156 0.429,0.371 0.57,0.64 0.144,0.27 0.215,0.613 0.215,1.035 0,0.828 -0.235,1.414 -0.7,1.766 -0.464,0.352 -1.078,0.527 -1.843,0.527 l -3.848,0 0,-4.406 3.781,0 z m 21.102,13.316 0,-2.964 -8.485,0 0,-3.446 7.79,0 0,-2.746 -7.79,0 0,-3.937 8.665,0 0,-2.969 -12.196,0 0,16.062 12.016,0 z m 11.09,-7.265 c 0.808,0 1.418,0.18 1.82,0.539 0.406,0.359 0.609,0.945 0.609,1.758 0,0.777 -0.203,1.343 -0.609,1.699 -0.402,0.352 -1.012,0.527 -1.82,0.527 l -3.871,0 0,-4.523 3.871,0 z m 1.258,7.265 c 0.718,0 1.371,-0.113 1.949,-0.343 0.574,-0.235 1.07,-0.551 1.48,-0.961 0.414,-0.403 0.731,-0.871 0.946,-1.403 0.218,-0.535 0.328,-1.109 0.328,-1.722 0,-0.946 -0.2,-1.762 -0.594,-2.453 -0.399,-0.692 -1.051,-1.215 -1.949,-1.575 l 0,-0.043 c 0.433,-0.125 0.797,-0.308 1.082,-0.554 0.285,-0.246 0.515,-0.539 0.695,-0.879 0.18,-0.336 0.313,-0.707 0.395,-1.11 0.082,-0.406 0.136,-0.812 0.168,-1.218 0.015,-0.254 0.031,-0.555 0.046,-0.899 0.012,-0.343 0.039,-0.699 0.079,-1.058 0.039,-0.36 0.097,-0.699 0.179,-1.024 0.082,-0.32 0.203,-0.593 0.371,-0.82 l -3.535,0 c -0.191,0.508 -0.312,1.117 -0.355,1.82 -0.047,0.707 -0.114,1.379 -0.203,2.028 -0.122,0.839 -0.375,1.453 -0.766,1.843 -0.391,0.391 -1.027,0.586 -1.914,0.586 l -3.531,0 0,-6.277 -3.536,0 0,16.062 8.665,0 z M 552.199,1.418 c -0.761,-0.324 -1.535,-0.484 -2.312,-0.484 -1.235,0 -2.34,0.211 -3.321,0.64 -0.984,0.426 -1.812,1.016 -2.488,1.766 -0.676,0.75 -1.191,1.633 -1.551,2.644 -0.363,1.012 -0.543,2.102 -0.543,3.274 0,1.199 0.18,2.312 0.543,3.34 0.36,1.027 0.875,1.925 1.551,2.691 0.676,0.762 1.504,1.363 2.488,1.801 0.981,0.433 2.086,0.648 3.321,0.648 0.824,0 1.621,-0.121 2.394,-0.371 0.774,-0.246 1.469,-0.609 2.09,-1.09 0.625,-0.48 1.141,-1.07 1.543,-1.777 0.406,-0.707 0.652,-1.516 0.742,-2.43 l -3.375,0 c -0.211,0.899 -0.617,1.578 -1.215,2.024 -0.597,0.449 -1.328,0.679 -2.179,0.679 -0.797,0 -1.473,-0.156 -2.028,-0.464 -0.554,-0.309 -1.004,-0.719 -1.347,-1.235 -0.348,-0.519 -0.602,-1.109 -0.754,-1.769 -0.16,-0.66 -0.238,-1.344 -0.238,-2.047 0,-0.676 0.078,-1.332 0.238,-1.969 0.152,-0.637 0.406,-1.211 0.754,-1.723 0.343,-0.507 0.793,-0.918 1.347,-1.226 0.555,-0.309 1.231,-0.461 2.028,-0.461 1.168,0 2.07,0.297 2.711,0.891 0.632,0.589 1.007,1.449 1.113,2.574 l -3.559,0 0,2.636 6.75,0 0,-8.687 -2.25,0 -0.355,1.82 c -0.633,-0.808 -1.328,-1.375 -2.098,-1.695"
                           id="path3673"
                           style="fill:#000000;fill-opacity:1;fill-rule:nonzero;stroke:none" /><path
                           d="m 294.848,26.82 c -1.215,-1.058 -2.899,-1.586 -5.043,-1.586 -2.172,0 -3.86,0.524 -5.051,1.575 -1.192,1.05 -1.789,2.668 -1.789,4.859 l 0,9.988 3.531,0 0,-9.988 c 0,-0.434 0.039,-0.863 0.113,-1.281 0.079,-0.422 0.235,-0.793 0.477,-1.114 0.234,-0.324 0.57,-0.589 1,-0.789 0.426,-0.203 1,-0.304 1.719,-0.304 1.261,0 2.133,0.285 2.609,0.843 0.481,0.567 0.723,1.446 0.723,2.645 l 0,9.988 3.531,0 0,-9.988 c 0,-2.176 -0.606,-3.793 -1.82,-4.848 m 9.312,14.836 6.703,-10.777 0.047,0 0,10.777 3.309,0 0,-16.062 -3.531,0 -6.684,10.754 -0.047,0 0,-10.754 -3.309,0 0,16.062 3.512,0 z m 17.528,-16.062 -3.536,0 0,16.062 3.536,0 0,-16.062 z m 7.75,0 -5.2,16.062 3.621,0 3.579,-11.293 0.042,0 3.625,11.293 3.645,0 -5.332,-16.062 -3.98,0 z m 23.937,16.062 0,-2.968 -8.484,0 0,-3.442 7.785,0 0,-2.746 -7.785,0 0,-3.938 8.664,0 0,-2.968 -12.196,0 0,16.062 12.016,0 z m 10.863,-7.265 c 0.809,0 1.414,0.179 1.821,0.539 0.406,0.359 0.609,0.945 0.609,1.754 0,0.781 -0.203,1.347 -0.609,1.703 -0.407,0.347 -1.012,0.527 -1.821,0.527 l -3.871,0 0,-4.523 3.871,0 z m 1.258,7.265 c 0.723,0 1.367,-0.117 1.945,-0.347 0.579,-0.231 1.075,-0.551 1.489,-0.957 0.41,-0.403 0.726,-0.875 0.941,-1.403 0.219,-0.535 0.328,-1.109 0.328,-1.726 0,-0.942 -0.199,-1.758 -0.594,-2.45 -0.402,-0.687 -1.046,-1.214 -1.949,-1.574 l 0,-0.043 c 0.438,-0.125 0.797,-0.308 1.082,-0.554 0.282,-0.25 0.516,-0.543 0.696,-0.879 0.179,-0.336 0.312,-0.707 0.394,-1.114 0.082,-0.402 0.141,-0.808 0.168,-1.214 0.016,-0.254 0.031,-0.555 0.047,-0.899 0.016,-0.344 0.043,-0.699 0.078,-1.058 0.035,-0.36 0.098,-0.704 0.18,-1.024 0.082,-0.32 0.207,-0.598 0.371,-0.82 l -3.531,0 c -0.2,0.508 -0.317,1.117 -0.364,1.82 -0.043,0.707 -0.109,1.379 -0.199,2.024 -0.121,0.843 -0.375,1.457 -0.766,1.847 -0.39,0.391 -1.027,0.586 -1.914,0.586 l -3.531,0 0,-6.277 -3.531,0 0,16.062 8.66,0 z m 10.938,-12.105 c 0.195,-0.375 0.453,-0.676 0.777,-0.91 0.32,-0.231 0.699,-0.407 1.133,-0.516 0.433,-0.113 0.886,-0.168 1.347,-0.168 0.321,0 0.657,0.023 1.016,0.078 0.359,0.051 0.695,0.153 1.012,0.305 0.316,0.148 0.578,0.355 0.789,0.617 0.211,0.262 0.312,0.594 0.312,1.004 0,0.434 -0.136,0.785 -0.414,1.055 -0.277,0.269 -0.64,0.496 -1.094,0.672 -0.449,0.183 -0.957,0.343 -1.527,0.476 -0.57,0.133 -1.148,0.285 -1.734,0.449 -0.602,0.153 -1.184,0.336 -1.754,0.551 -0.57,0.215 -1.078,0.5 -1.531,0.844 -0.45,0.344 -0.813,0.777 -1.09,1.293 -0.281,0.519 -0.414,1.144 -0.414,1.879 0,0.824 0.176,1.539 0.527,2.152 0.352,0.602 0.813,1.109 1.383,1.516 0.57,0.406 1.215,0.703 1.933,0.898 0.719,0.195 1.442,0.293 2.161,0.293 0.839,0 1.644,-0.09 2.422,-0.277 0.773,-0.188 1.457,-0.492 2.054,-0.914 0.602,-0.422 1.078,-0.957 1.434,-1.61 0.347,-0.648 0.523,-1.445 0.523,-2.375 l -3.418,0 c -0.027,0.481 -0.133,0.879 -0.301,1.196 -0.175,0.312 -0.406,0.562 -0.691,0.742 -0.281,0.179 -0.609,0.308 -0.977,0.383 -0.367,0.074 -0.765,0.109 -1.203,0.109 -0.285,0 -0.57,-0.027 -0.855,-0.086 -0.285,-0.062 -0.543,-0.168 -0.774,-0.316 -0.234,-0.153 -0.425,-0.34 -0.578,-0.563 -0.148,-0.226 -0.222,-0.512 -0.222,-0.855 0,-0.317 0.058,-0.567 0.179,-0.762 0.121,-0.195 0.356,-0.375 0.707,-0.543 0.356,-0.164 0.84,-0.328 1.465,-0.496 0.621,-0.164 1.438,-0.375 2.442,-0.629 0.297,-0.059 0.715,-0.168 1.25,-0.324 0.531,-0.16 1.058,-0.41 1.586,-0.754 0.523,-0.348 0.976,-0.809 1.359,-1.383 0.383,-0.582 0.574,-1.316 0.574,-2.219 0,-0.734 -0.14,-1.418 -0.43,-2.051 -0.285,-0.628 -0.707,-1.171 -1.269,-1.628 -0.563,-0.457 -1.262,-0.813 -2.094,-1.071 -0.832,-0.254 -1.797,-0.379 -2.89,-0.379 -0.883,0 -1.747,0.11 -2.579,0.325 -0.832,0.218 -1.566,0.558 -2.203,1.027 -0.636,0.461 -1.14,1.055 -1.515,1.773 -0.375,0.723 -0.559,1.575 -0.543,2.567 l 3.422,0 c 0,-0.539 0.093,-1 0.293,-1.375 m 16.421,-3.957 -3.531,0 0,16.062 3.531,0 0,-16.062 z m 2.836,13.094 0,2.968 13.164,0 0,-2.968 -4.816,0 0,-13.094 -3.531,0 0,13.094 -4.817,0 z m 19.957,4.773 -3.039,0 0,2.633 3.039,0 0,-2.633 z m 4.633,0 -3.035,0 0,2.633 3.035,0 0,-2.633 z m -1.773,-11.66 -2.028,5.898 -0.042,0 -2.094,-5.898 4.164,0 z m -0.203,9.855 6.007,-16.062 -3.667,0 -1.215,3.574 -6.008,0 -1.262,-3.574 -3.555,0 6.079,16.062 3.621,0 z m 5.668,-2.968 0,2.968 13.164,0 0,-2.968 -4.817,0 0,-13.094 -3.531,0 0,13.094 -4.816,0"
                           id="path3675"
                           style="fill:#000000;fill-opacity:1;fill-rule:nonzero;stroke:none" /><path
                           d="m 294.215,66.258 0,-2.969 -7.762,0 0,-3.715 6.727,0 0,-2.742 -6.727,0 0,-6.641 -3.535,0 0,16.067 11.297,0 z m 10.273,-7.27 c 0.809,0 1.418,0.18 1.824,0.543 0.403,0.36 0.606,0.942 0.606,1.754 0,0.777 -0.203,1.348 -0.606,1.699 -0.406,0.352 -1.015,0.532 -1.824,0.532 l -3.871,0 0,-4.528 3.871,0 z m 1.258,7.27 c 0.723,0 1.371,-0.113 1.945,-0.348 0.579,-0.234 1.079,-0.555 1.489,-0.957 0.414,-0.406 0.726,-0.875 0.941,-1.406 0.223,-0.531 0.328,-1.109 0.328,-1.723 0,-0.945 -0.195,-1.762 -0.594,-2.453 -0.398,-0.687 -1.046,-1.215 -1.949,-1.574 l 0,-0.043 c 0.438,-0.121 0.797,-0.305 1.082,-0.551 0.285,-0.25 0.52,-0.543 0.7,-0.879 0.175,-0.336 0.308,-0.711 0.39,-1.113 0.082,-0.406 0.141,-0.809 0.168,-1.215 0.016,-0.258 0.031,-0.558 0.047,-0.902 0.016,-0.344 0.043,-0.696 0.078,-1.055 0.035,-0.363 0.098,-0.703 0.18,-1.023 0.082,-0.325 0.207,-0.598 0.371,-0.825 l -3.531,0 c -0.196,0.512 -0.317,1.118 -0.36,1.825 -0.047,0.703 -0.113,1.379 -0.203,2.023 -0.121,0.84 -0.375,1.457 -0.766,1.848 -0.39,0.39 -1.027,0.582 -1.914,0.582 l -3.531,0 0,-6.278 -3.531,0 0,16.067 8.66,0 z m 12.137,-16.067 -3.531,0 0,16.067 3.531,0 0,-16.067 z m 16.062,16.067 0,-2.969 -8.48,0 0,-3.445 7.785,0 0,-2.746 -7.785,0 0,-3.934 8.664,0 0,-2.973 -12.195,0 0,16.067 12.011,0 z M 344.09,53.164 c 0.512,0 1.004,0.082 1.484,0.246 0.481,0.164 0.906,0.438 1.281,0.82 0.375,0.383 0.676,0.883 0.903,1.497 0.222,0.617 0.336,1.367 0.336,2.25 0,0.812 -0.078,1.543 -0.235,2.195 -0.16,0.652 -0.418,1.211 -0.777,1.676 -0.359,0.464 -0.836,0.82 -1.43,1.07 -0.59,0.246 -1.324,0.371 -2.191,0.371 l -2.523,0 0,-10.125 3.152,0 z m 0.246,13.094 c 1.035,0 2,-0.164 2.894,-0.492 0.891,-0.332 1.665,-0.828 2.317,-1.489 0.652,-0.66 1.16,-1.484 1.527,-2.476 0.367,-0.989 0.555,-2.149 0.555,-3.489 0,-1.167 -0.152,-2.25 -0.453,-3.238 -0.297,-0.988 -0.75,-1.844 -1.36,-2.562 -0.605,-0.723 -1.367,-1.289 -2.273,-1.7 -0.906,-0.414 -1.977,-0.621 -3.207,-0.621 l -6.93,0 0,16.067 6.93,0 z m 17.559,-7.27 c 0.808,0 1.417,0.18 1.824,0.543 0.402,0.36 0.605,0.942 0.605,1.754 0,0.777 -0.203,1.348 -0.605,1.699 -0.407,0.352 -1.016,0.532 -1.824,0.532 l -3.872,0 0,-4.528 3.872,0 z m 1.261,7.27 c 0.719,0 1.367,-0.113 1.946,-0.348 0.578,-0.234 1.074,-0.555 1.488,-0.957 0.41,-0.406 0.722,-0.875 0.941,-1.406 0.219,-0.531 0.328,-1.109 0.328,-1.723 0,-0.945 -0.199,-1.762 -0.597,-2.453 -0.399,-0.687 -1.047,-1.215 -1.946,-1.574 l 0,-0.043 c 0.434,-0.121 0.793,-0.305 1.079,-0.551 0.285,-0.25 0.519,-0.543 0.699,-0.879 0.179,-0.336 0.308,-0.711 0.394,-1.113 0.082,-0.406 0.137,-0.809 0.168,-1.215 0.016,-0.258 0.032,-0.558 0.043,-0.902 0.016,-0.344 0.043,-0.696 0.078,-1.055 0.039,-0.363 0.102,-0.703 0.184,-1.023 0.078,-0.325 0.203,-0.598 0.367,-0.825 l -3.527,0 c -0.196,0.512 -0.317,1.118 -0.363,1.825 -0.043,0.703 -0.114,1.379 -0.204,2.023 -0.121,0.84 -0.375,1.457 -0.761,1.848 -0.395,0.39 -1.032,0.582 -1.914,0.582 l -3.536,0 0,-6.278 -3.531,0 0,16.067 8.664,0 z m 11.797,-16.067 -3.531,0 0,16.067 3.531,0 0,-16.067 z m 14.102,11.782 c -0.207,0.336 -0.473,0.632 -0.785,0.886 -0.317,0.254 -0.672,0.453 -1.071,0.598 -0.398,0.141 -0.812,0.211 -1.25,0.211 -0.793,0 -1.469,-0.148 -2.023,-0.457 -0.555,-0.309 -1.004,-0.723 -1.352,-1.238 -0.344,-0.52 -0.594,-1.11 -0.754,-1.766 -0.156,-0.664 -0.234,-1.344 -0.234,-2.051 0,-0.676 0.078,-1.328 0.234,-1.968 0.16,-0.637 0.41,-1.211 0.754,-1.719 0.348,-0.512 0.797,-0.922 1.352,-1.227 0.554,-0.308 1.23,-0.461 2.023,-0.461 1.082,0 1.926,0.328 2.531,0.989 0.61,0.66 0.981,1.531 1.118,2.609 l 3.418,0 c -0.09,-1.004 -0.325,-1.91 -0.7,-2.723 -0.375,-0.808 -0.871,-1.5 -1.484,-2.066 -0.613,-0.57 -1.336,-1.008 -2.16,-1.309 -0.824,-0.301 -1.731,-0.445 -2.723,-0.445 -1.226,0 -2.336,0.211 -3.316,0.637 -0.985,0.429 -1.813,1.015 -2.488,1.765 -0.672,0.75 -1.192,1.633 -1.551,2.649 -0.364,1.011 -0.539,2.101 -0.539,3.269 0,1.199 0.175,2.317 0.539,3.344 0.359,1.027 0.879,1.922 1.551,2.688 0.675,0.765 1.503,1.363 2.488,1.8 0.98,0.434 2.09,0.653 3.316,0.653 0.887,0 1.723,-0.125 2.512,-0.383 0.785,-0.254 1.488,-0.625 2.113,-1.113 0.621,-0.489 1.137,-1.094 1.539,-1.813 0.407,-0.719 0.66,-1.543 0.77,-2.477 l -3.422,0 c -0.063,0.411 -0.195,0.782 -0.406,1.118 m 10.73,4.285 0,-6.164 6.5,0 0,6.164 3.535,0 0,-16.067 -3.535,0 0,6.93 -6.5,0 0,-6.93 -3.531,0 0,16.067 3.531,0 z m 20.817,-11.293 -6.774,0 0,2.742 6.774,0 0,-2.742 z m 11.593,1.437 -2.023,5.895 -0.043,0 -2.094,-5.895 4.16,0 z m -0.203,9.856 6.012,-16.067 -3.668,0 -1.219,3.579 -6.008,0 -1.257,-3.579 -3.555,0 6.074,16.067 3.621,0 z m 11.981,0 0,-13.094 7.828,0 0,-2.973 -11.363,0 0,16.067 3.535,0 z m 22.668,0 0,-2.969 -8.485,0 0,-3.445 7.785,0 0,-2.746 -7.785,0 0,-3.934 8.664,0 0,-2.973 -12.191,0 0,16.067 12.012,0 z m 2.722,0 4.098,0 3.148,-5.129 3.262,5.129 3.871,0 -5.152,-7.672 5.601,-8.395 -4.207,0 -3.511,5.559 -3.578,-5.559 -3.957,0 5.601,8.414 -5.176,7.653 z m 26.032,-9.856 -2.024,5.895 -0.047,0 -2.09,-5.895 4.161,0 z m -0.204,9.856 6.008,-16.067 -3.668,0 -1.215,3.579 -6.004,0 -1.261,-3.579 -3.555,0 6.074,16.067 3.621,0 z m 11.621,0 6.704,-10.778 0.046,0 0,10.778 3.305,0 0,-16.067 -3.531,0 -6.684,10.758 -0.047,0 0,-10.758 -3.304,0 0,16.067 3.511,0 z m 20.516,-13.094 c 0.512,0 1.008,0.082 1.488,0.246 0.481,0.164 0.907,0.438 1.282,0.82 0.375,0.383 0.672,0.883 0.898,1.497 0.227,0.617 0.34,1.367 0.34,2.25 0,0.812 -0.078,1.543 -0.234,2.195 -0.161,0.652 -0.418,1.211 -0.782,1.676 -0.355,0.464 -0.836,0.82 -1.425,1.07 -0.594,0.246 -1.325,0.371 -2.196,0.371 l -2.519,0 0,-10.125 3.148,0 z m 0.25,13.094 c 1.035,0 1.996,-0.164 2.891,-0.492 0.89,-0.332 1.668,-0.828 2.316,-1.489 0.653,-0.66 1.164,-1.484 1.531,-2.476 0.368,-0.989 0.551,-2.149 0.551,-3.489 0,-1.167 -0.148,-2.25 -0.449,-3.238 -0.301,-0.988 -0.754,-1.844 -1.359,-2.562 -0.61,-0.723 -1.368,-1.289 -2.274,-1.7 -0.906,-0.414 -1.976,-0.621 -3.207,-0.621 l -6.933,0 0,16.067 6.933,0 z m 22.207,0 0,-2.969 -8.48,0 0,-3.445 7.785,0 0,-2.746 -7.785,0 0,-3.934 8.66,0 0,-2.973 -12.195,0 0,16.067 12.015,0 z m 10.75,-7.27 c 0.813,0 1.418,0.18 1.824,0.543 0.407,0.36 0.606,0.942 0.606,1.754 0,0.777 -0.199,1.348 -0.606,1.699 -0.406,0.352 -1.011,0.532 -1.824,0.532 l -3.871,0 0,-4.528 3.871,0 z m 1.262,7.27 c 0.719,0 1.367,-0.113 1.945,-0.348 0.578,-0.234 1.07,-0.555 1.485,-0.957 0.414,-0.406 0.726,-0.875 0.945,-1.406 0.219,-0.531 0.324,-1.109 0.324,-1.723 0,-0.945 -0.195,-1.762 -0.594,-2.453 -0.398,-0.687 -1.047,-1.215 -1.949,-1.574 l 0,-0.043 c 0.438,-0.121 0.797,-0.305 1.082,-0.551 0.285,-0.25 0.52,-0.543 0.699,-0.879 0.18,-0.336 0.313,-0.711 0.395,-1.113 0.082,-0.406 0.137,-0.809 0.168,-1.215 0.015,-0.258 0.027,-0.558 0.043,-0.902 0.015,-0.344 0.043,-0.696 0.082,-1.055 0.035,-0.363 0.094,-0.703 0.18,-1.023 0.082,-0.325 0.203,-0.598 0.371,-0.825 l -3.535,0 c -0.196,0.512 -0.317,1.118 -0.36,1.825 -0.047,0.703 -0.113,1.379 -0.203,2.023 -0.117,0.84 -0.375,1.457 -0.766,1.848 -0.386,0.39 -1.023,0.582 -1.91,0.582 l -3.535,0 0,-6.278 -3.531,0 0,16.067 8.664,0"
                           id="path3677"
                           style="fill:#000000;fill-opacity:1;fill-rule:nonzero;stroke:none" /></g></g></g></g></g></g></g></g></g></g></g></svg>