<?xml version="1.0" encoding="UTF-8" standalone="no"?>
<!-- Created with Inkscape (http://www.inkscape.org/) -->

<svg
   xmlns:dc="http://purl.org/dc/elements/1.1/"
   xmlns:cc="http://creativecommons.org/ns#"
   xmlns:rdf="http://www.w3.org/1999/02/22-rdf-syntax-ns#"
   xmlns:svg="http://www.w3.org/2000/svg"
   xmlns="http://www.w3.org/2000/svg"
   version="1.1"
   width="212.61749"
   height="58.158749"
   id="svg3698"
   xml:space="preserve"><metadata
     id="metadata3704"><rdf:RDF><cc:Work
         rdf:about=""><dc:format>image/svg+xml</dc:format><dc:type
           rdf:resource="http://purl.org/dc/dcmitype/StillImage" /><dc:title></dc:title></cc:Work></rdf:RDF></metadata><defs
     id="defs3702"><clipPath
       id="clipPath3736"><path
         d="m 36.867,39 133.223,0 0,-20.496 -133.223,0 0,20.496 z"
         id="path3738" /></clipPath><clipPath
       id="clipPath3744"><path
         d="M 0,0 171,0 171,47 0,47 0,0 z"
         id="path3746" /></clipPath><clipPath
       id="clipPath3748"><path
         d="M 0,0 171,0 171,47 0,47 0,0 z"
         id="path3750" /></clipPath></defs><g
     transform="matrix(1.25,0,0,-1.25,0,58.15875)"
     id="g3706"><g
       id="g3708"><path
         d="m 0,18.82 c 6.562,3.379 16.172,8.84 27.578,16.824 l 0,2.68 C 17.539,31.754 7.328,26.48 0,22.992 L 0,18.82"
         id="path3710"
         style="fill:#000000;fill-opacity:1;fill-rule:nonzero;stroke:none" /><path
         d="m 0,26.824 c 7.305,2.976 17.516,7.574 27.578,13.558 l 0,1.325 C 18.121,37.011 8.293,34.078 0,32.246 l 0,-5.422"
         id="path3712"
         style="fill:#000000;fill-opacity:1;fill-rule:nonzero;stroke:none" /><path
         d="m 27.578,18.808 0,13.481 C 21.301,26.992 15.082,22.41 9.859,18.808 l 17.719,0"
         id="path3714"
         style="fill:#000000;fill-opacity:1;fill-rule:nonzero;stroke:none" /><path
         d="m 6.332,18.808 c 4.961,2.946 10.98,6.789 16.977,11.278 1.398,1.05 2.828,2.129 4.269,3.246 l 0,1.668 C 18.707,28.347 9.648,22.804 2.57,18.808 l 3.762,0"
         id="path3716"
         style="fill:#000000;fill-opacity:1;fill-rule:nonzero;stroke:none" /><path
         d="m 0,34.207 c 8.066,1.418 17.934,3.968 27.578,8.554 l 0,1.5 C 17.859,39.902 8.133,38.05 0,37.39 l 0,-3.183"
         id="path3718"
         style="fill:#000000;fill-opacity:1;fill-rule:nonzero;stroke:none" /><path
         d="m 0,46.527 0,-7.723 c 0.602,0.039 1.219,0.082 1.844,0.129 6.707,0.516 15.859,1.703 25.734,5.973 l 0,1.621 -27.578,0"
         id="path3720"
         style="fill:#000000;fill-opacity:1;fill-rule:nonzero;stroke:none" /><path
         d="M 0,38.804 0,37.39 c 8.133,0.66 17.859,2.512 27.578,6.871 l 0,0.645 C 17.703,40.636 8.551,39.449 1.844,38.933 1.219,38.886 0.602,38.843 0,38.804"
         id="path3722"
         style="fill:#ffffff;fill-opacity:1;fill-rule:nonzero;stroke:none" /><path
         d="m 0,32.246 c 8.293,1.832 18.121,4.765 27.578,9.461 l 0,1.054 C 17.934,38.175 8.066,35.625 0,34.207 l 0,-1.961"
         id="path3724"
         style="fill:#ffffff;fill-opacity:1;fill-rule:nonzero;stroke:none" /><path
         d="m 0,22.992 c 7.328,3.488 17.539,8.762 27.578,15.332 l 0,2.058 C 17.516,34.398 7.305,29.8 0,26.824 l 0,-3.832"
         id="path3726"
         style="fill:#ffffff;fill-opacity:1;fill-rule:nonzero;stroke:none" /><path
         d="m 6.332,18.808 3.527,0 c 5.223,3.602 11.442,8.184 17.719,13.481 l 0,1.043 C 26.137,32.215 24.707,31.136 23.309,30.086 17.312,25.597 11.293,21.754 6.332,18.808"
         id="path3728"
         style="fill:#ffffff;fill-opacity:1;fill-rule:nonzero;stroke:none" /><path
         d="m 0,18.808 2.57,0 C 9.648,22.804 18.707,28.347 27.578,35 l 0,0.644 C 16.172,27.66 6.562,22.199 0,18.82 l 0,-0.012"
         id="path3730"
         style="fill:#ffffff;fill-opacity:1;fill-rule:nonzero;stroke:none" /></g><g
       id="g3732"><g
         clip-path="url(#clipPath3736)"
         id="g3734"><g
           transform="translate(0,-0.473)"
           id="g3740"><g
             id="g3742" /><g
             id="g3752"><g
               clip-path="url(#clipPath3744)"
               id="g3754"><g
                 id="g3756"><g
                   id="g3758"><g
                     id="g3760" /><g
                     id="g3762"><g
                       clip-path="url(#clipPath3748)"
                       id="g3764"><g
                         id="g3766" /><g
                         id="g3768"><path
                           d="m 36.867,19.293 3.707,0 0,8.105 6.246,0 0,2.911 -6.246,0 0,4.554 6.567,0 0,2.914 -10.274,0 0,-18.484 z m 12.813,0 3.547,0 0,5.008 c 0,1.957 0,5.558 2.886,5.558 0.637,0 1.27,-0.101 1.59,-0.289 l 0,3.575 c -0.371,0.105 -0.742,0.105 -1.086,0.105 -2.117,0 -3.574,-2.148 -3.734,-3.414 l -0.051,0 0,3.094 -3.152,0 0,-13.637 z m 10.672,9.879 c 1.187,0.902 2.699,1.484 4.207,1.484 2.089,0 3.07,-0.742 3.07,-2.941 l -1.957,0 c -1.484,0 -3.231,-0.129 -4.582,-0.793 -1.348,-0.664 -2.328,-1.856 -2.328,-3.895 0,-2.593 2.355,-4.05 4.765,-4.05 1.614,0 3.387,0.847 4.207,2.355 l 0.055,0 c 0.027,-0.422 0.027,-1.32 0.16,-2.039 l 3.121,0 c -0.078,1.062 -0.129,2.016 -0.156,3.047 -0.027,1.008 -0.055,2.039 -0.055,3.418 l 0,1.746 c 0,4.023 -1.718,5.746 -5.875,5.746 -1.511,0 -3.363,-0.398 -4.742,-1.035 l 0.11,-3.043 z m 1.796,-5.934 c 0,2.094 2.356,2.36 3.946,2.36 l 1.535,0 c 0,-1.059 -0.156,-2.039 -0.742,-2.809 -0.555,-0.738 -1.403,-1.219 -2.485,-1.219 -1.273,0 -2.254,0.508 -2.254,1.668 m 24.2,9.692 -3.547,0 0,-6.672 c 0,-1.746 -0.555,-4.528 -3.125,-4.528 -2.278,0 -2.305,2.254 -2.305,3.922 l 0,7.278 -3.547,0 0,-8.606 c 0,-3.07 1.406,-5.347 4.637,-5.347 1.851,0 3.387,0.847 4.473,2.171 l 0.054,0 0,-1.855 3.36,0 0,13.637 z m 3.656,-13.637 3.547,0 0,6.676 c 0,1.746 0.554,4.527 3.125,4.527 2.273,0 2.301,-2.25 2.301,-3.918 l 0,-7.285 3.55,0 0,8.609 c 0,3.071 -1.406,5.348 -4.632,5.348 -1.856,0 -3.364,-0.609 -4.477,-2.172 l -0.055,0 0,1.852 -3.359,0 0,-13.637 z m 16.176,0 3.547,0 0,6.676 c 0,1.746 0.554,4.527 3.125,4.527 2.277,0 2.3,-2.25 2.3,-3.918 l 0,-7.285 3.547,0 0,8.609 c 0,3.071 -1.402,5.348 -4.629,5.348 -1.855,0 -3.39,-0.848 -4.289,-2.172 l -0.054,0 0,8.074 -3.547,0 0,-19.859 z m 14.769,6.727 c 0,-3.915 2.625,-7.043 7.125,-7.043 4.528,0 7.149,3.128 7.149,7.043 0,4.503 -3.094,7.23 -7.149,7.23 -4.023,0 -7.125,-2.727 -7.125,-7.23 m 3.707,0.425 c 0,2.039 1.114,4.051 3.418,4.051 2.332,0 3.442,-1.961 3.442,-4.051 0,-2.277 -0.711,-4.715 -3.442,-4.715 -2.703,0 -3.418,2.465 -3.418,4.715 m 14.114,-7.152 3.546,0 0,11.043 3.098,0 0,2.594 -3.098,0 0,1.695 c 0,1.059 0.372,2.094 1.567,2.094 0.765,0 1.215,-0.293 1.531,-0.481 l 0.293,2.942 c -0.687,0.156 -1.695,0.289 -2.594,0.289 -2.808,0 -4.343,-1.907 -4.343,-4.633 l 0,-1.906 -2.622,0 0,-2.594 2.622,0 0,-11.043 z m 11.332,8.156 c 0.16,1.828 1.164,3.207 3.148,3.207 1.988,0 2.781,-1.484 2.887,-3.207 l -6.035,0 z m 8.418,-4.5 c -1.325,-0.742 -2.805,-1.379 -4.528,-1.379 -2.195,0 -3.73,1.246 -3.89,3.446 l 9.421,0 c 0,4.765 -1.425,8.234 -6.484,8.234 -4.234,0 -6.324,-3.258 -6.324,-7.203 0,-4.477 2.617,-7.07 7.121,-7.07 1.906,0 3.387,0.371 4.684,1.085 l 0,2.887 z m 3.546,-3.656 3.547,0 0,5.008 c 0,1.957 0,5.558 2.887,5.558 0.637,0 1.273,-0.101 1.59,-0.289 l 0,3.575 c -0.375,0.105 -0.742,0.105 -1.086,0.105 -2.117,0 -3.574,-2.148 -3.734,-3.414 l -0.051,0 0,3.094 -3.153,0 0,-13.637"
                           id="path3770"
                           style="fill:#231f20;fill-opacity:1;fill-rule:nonzero;stroke:none" /></g></g></g></g></g></g></g></g></g></g><g
       id="g3772"><path
         d="m 156.434,9.406 1.793,0 0,-9.246 -1.793,0 0,9.246 z"
         id="path3774"
         style="fill:#231f20;fill-opacity:1;fill-rule:nonzero;stroke:none" /><path
         d="m 160.633,9.406 1.789,0 0,-9.246 -1.789,0 0,9.246 z"
         id="path3776"
         style="fill:#231f20;fill-opacity:1;fill-rule:nonzero;stroke:none" /><path
         d="m 167.586,8.109 c -0.156,0 -0.309,-0.019 -0.465,-0.055 -0.16,-0.035 -0.312,-0.101 -0.461,-0.199 -0.137,-0.086 -0.25,-0.219 -0.344,-0.394 -0.093,-0.168 -0.14,-0.383 -0.14,-0.637 0,-0.195 0.058,-0.359 0.179,-0.492 0.122,-0.133 0.27,-0.25 0.45,-0.356 0.195,-0.105 0.41,-0.203 0.636,-0.293 0.223,-0.097 0.457,-0.199 0.704,-0.304 0.25,-0.098 0.488,-0.211 0.718,-0.344 0.239,-0.141 0.449,-0.313 0.629,-0.516 0.18,-0.195 0.328,-0.429 0.446,-0.703 0.101,-0.281 0.156,-0.621 0.156,-1.019 -0.02,-1 -0.348,-1.715 -0.989,-2.145 C 168.469,0.218 167.68,0 166.738,0 c -0.461,0 -0.847,0.035 -1.164,0.109 -0.324,0.059 -0.699,0.145 -1.129,0.25 l 0.168,1.668 c 0.633,-0.371 1.309,-0.559 2.024,-0.57 0.367,0 0.718,0.097 1.062,0.293 0.34,0.195 0.516,0.496 0.524,0.902 0,0.219 -0.051,0.41 -0.153,0.566 -0.121,0.161 -0.269,0.293 -0.449,0.399 -0.391,0.211 -0.84,0.414 -1.344,0.609 -0.246,0.106 -0.48,0.231 -0.703,0.371 -0.23,0.133 -0.445,0.293 -0.64,0.477 -0.18,0.195 -0.329,0.43 -0.45,0.703 -0.117,0.273 -0.175,0.598 -0.175,0.965 0.015,1.027 0.343,1.758 0.984,2.199 0.613,0.418 1.324,0.625 2.137,0.625 0.769,0 1.48,-0.113 2.136,-0.332 l -0.164,-1.523 c -0.574,0.257 -1.179,0.386 -1.816,0.398"
         id="path3778"
         style="fill:#231f20;fill-opacity:1;fill-rule:nonzero;stroke:none" /></g></g></svg>